<?xml version="1.0" encoding="UTF-8"?>
<svg version="1.1" xmlns="http://www.w3.org/2000/svg" width="618" height="170">
<path d="M0 0 C2.5625 1.4375 2.5625 1.4375 4 3 C4 3.66 4 4.32 4 5 C4.66 5 5.32 5 6 5 C10.21246717 14.30253168 9.91562716 22.88783347 6.98828125 32.61328125 C5.10897798 37.15183578 1.96757784 39.3549481 -2 42 C-4.91796875 42.4140625 -4.91796875 42.4140625 -8.1875 42.625 C-9.27417969 42.69976562 -10.36085938 42.77453125 -11.48046875 42.8515625 C-12.31191406 42.90054688 -13.14335937 42.94953125 -14 43 C-14.06058594 43.83144531 -14.12117188 44.66289063 -14.18359375 45.51953125 C-14.26738281 46.60621094 -14.35117187 47.69289062 -14.4375 48.8125 C-14.51871094 49.89144531 -14.59992188 50.97039062 -14.68359375 52.08203125 C-15 55 -15 55 -16 58 C-19 59 -19 59 -28 59 C-28 39.53 -28 20.06 -28 0 C-20 0 -20 0 -17.9375 1.1875 C-17.298125 1.455625 -16.65875 1.72375 -16 2 C-14.32556354 1.24486199 -12.65276964 0.48504455 -11 -0.31640625 C-7.30675601 -1.5787455 -3.71787068 -0.95458842 0 0 Z M-14 12 C-15.16009247 15.48027742 -15.20416521 18.33321643 -15.25 22 C-15.27578125 23.2375 -15.3015625 24.475 -15.328125 25.75 C-15.2724966 28.94601104 -15.2724966 28.94601104 -13.64453125 30.9375 C-11.96759102 32.2317662 -11.96759102 32.2317662 -9.4375 32 C-6.88542608 31.21550668 -6.88542608 31.21550668 -5.6875 29.0625 C-4.4724199 23.64987045 -4.4291026 18.33116437 -5.75 12.9375 C-6.8485575 10.86593924 -6.8485575 10.86593924 -8.9375 10.0625 C-11.31450092 9.79103278 -11.31450092 9.79103278 -14 12 Z " fill="#F0E699" transform="translate(386,66)"/>
<path d="M0 0 C4.94917634 2.83740373 7.39501491 5.91909083 9.640625 11.12890625 C11.07935419 16.78105662 10.26728174 20.6748219 8.640625 26.12890625 C1.98424657 27.36730224 -4.6065686 27.22029761 -11.359375 27.12890625 C-11.359375 28.11890625 -11.359375 29.10890625 -11.359375 30.12890625 C-9.46362249 30.15611801 -7.56775521 30.17539761 -5.671875 30.19140625 C-4.61613281 30.20300781 -3.56039062 30.21460937 -2.47265625 30.2265625 C0.36472762 30.1375605 2.8845169 29.77830463 5.640625 29.12890625 C8.04876577 32.64077821 9.00691908 34.85547533 8.640625 39.12890625 C1.23863585 43.51527019 -5.87807003 44.12790611 -14.359375 43.12890625 C-18.57360475 41.86178987 -20.92496977 39.65476522 -23.734375 36.25390625 C-27.61747193 28.78641216 -27.8109251 17.69626515 -25.296875 9.69140625 C-23.42482681 5.46362278 -20.17699407 2.63638787 -16.359375 0.12890625 C-11.09387166 -1.62626153 -5.26334027 -1.94325311 0 0 Z M-10.359375 10.12890625 C-10.689375 11.77890625 -11.019375 13.42890625 -11.359375 15.12890625 C-9.049375 15.12890625 -6.739375 15.12890625 -4.359375 15.12890625 C-4.689375 13.47890625 -5.019375 11.82890625 -5.359375 10.12890625 C-7.009375 10.12890625 -8.659375 10.12890625 -10.359375 10.12890625 Z " fill="#AD894A" transform="translate(532.359375,65.87109375)"/>
<path d="M0 0 C4.9391581 7.47929655 5.11661332 13.77468587 4.9609375 22.5859375 C4.92293257 26.13306429 5.05205378 29.35719662 5.56640625 32.88671875 C6 36 6 36 4.9375 38.4375 C3 40 3 40 0.125 40.375 C-3 40 -3 40 -5.4375 38.8125 C-8.7191486 37.77197727 -10.1161352 38.79115313 -13.10546875 40.25 C-17.39456635 41.94795204 -21.57742721 41.60064184 -25.8125 39.8125 C-29.0852682 37.10077778 -30.69432188 34.97851004 -31.35546875 30.69921875 C-31.66009659 25.27354986 -31.02460168 21.60130532 -27.47265625 17.40625 C-23.48814506 13.60141173 -19.97525275 12.84268478 -14.625 12.8125 C-13.08280654 12.86026705 -11.54074116 12.91778654 -10 13 C-10 12.01 -10 11.02 -10 10 C-11.89575251 9.97278824 -13.79161979 9.95350864 -15.6875 9.9375 C-16.74324219 9.92589844 -17.79898438 9.91429688 -18.88671875 9.90234375 C-21.72410262 9.99134575 -24.2438919 10.35060162 -27 11 C-30 4.375 -30 4.375 -30 1 C-9.11388259 -5.6818766 -9.11388259 -5.6818766 0 0 Z M-17 24 C-17.33343551 26.45792029 -17.33343551 26.45792029 -17 29 C-15.515 29.99 -15.515 29.99 -14 31 C-12.68 30.34 -11.36 29.68 -10 29 C-10 27.02 -10 25.04 -10 23 C-13.80621045 22.56152641 -13.80621045 22.56152641 -17 24 Z " fill="#BFA15F" transform="translate(265,68)"/>
<path d="M0 0 C7.671875 -0.2109375 7.671875 -0.2109375 10.625 1.6875 C11.40875 2.120625 12.1925 2.55375 13 3 C15.01800895 2.03685937 17.01549844 1.03041427 19 0 C23.58496199 -0.73034793 26.91230156 -0.64799056 30.9375 1.75 C33.86580373 4.94451316 35.18095949 7.69873391 35.578125 12.00390625 C35.65095703 12.79039551 35.72378906 13.57688477 35.79882812 14.38720703 C36.17213492 19.23566496 36.49651995 24.08119313 36.75 28.9375 C36.85248047 30.49694336 36.85248047 30.49694336 36.95703125 32.08789062 C37.00730469 33.07853516 37.05757813 34.06917969 37.109375 35.08984375 C37.16061523 35.98566162 37.21185547 36.88147949 37.26464844 37.80444336 C37.13364746 38.8912439 37.13364746 38.8912439 37 40 C33.90219052 42.06520632 33.0459519 42.29477024 29.5 42.3125 C28.33984375 42.33763672 28.33984375 42.33763672 27.15625 42.36328125 C24.40714163 41.90011625 23.69523532 41.19158266 22 39 C21.58349609 36.59570312 21.58349609 36.59570312 21.5234375 33.78125 C21.4925 32.76675781 21.4615625 31.75226563 21.4296875 30.70703125 C21.41164063 29.64871094 21.39359375 28.59039062 21.375 27.5 C21.32399286 25.40615711 21.26946382 23.31239621 21.2109375 21.21875 C21.19337402 20.28998047 21.17581055 19.36121094 21.15771484 18.40429688 C21.09249136 15.85505374 21.09249136 15.85505374 20 13 C18.35 13.33 16.7 13.66 15 14 C14.01445028 19.97127181 13.68944649 25.89491458 13.4375 31.9375 C13.39431641 32.90751953 13.35113281 33.87753906 13.30664062 34.87695312 C13.20137983 37.25116894 13.10026801 39.62556809 13 42 C8.71 42 4.42 42 0 42 C-5.11261045 31.7747791 -0.52576086 11.16402846 0 0 Z " fill="#D5C077" transform="translate(278,66)"/>
<path d="M0 0 C13.2 0 26.4 0 40 0 C41 8 41 8 39.0625 11 C34.99438949 13.65672523 32.78505751 13.15704804 28 13 C27.98541748 14.29212402 27.97083496 15.58424805 27.95581055 16.91552734 C27.89794978 21.69787633 27.82071683 26.47974839 27.73754883 31.26171875 C27.70424177 33.33358027 27.67622803 35.40553379 27.65356445 37.47753906 C27.62012437 40.45157173 27.56781495 43.42475679 27.51171875 46.3984375 C27.50532883 47.32868744 27.4989389 48.25893738 27.49235535 49.21737671 C27.47256119 50.07811798 27.45276703 50.93885925 27.43237305 51.82568359 C27.42126999 52.58513275 27.41016693 53.34458191 27.39872742 54.12704468 C27 56 27 56 24 58 C21.84375 58.30078125 21.84375 58.30078125 19.5 58.3125 C18.33984375 58.33763672 18.33984375 58.33763672 17.15625 58.36328125 C14.4350679 57.90482122 13.70379152 57.1376005 12 55 C11.63923645 53.04475403 11.63923645 53.04475403 11.65942383 50.80395508 C11.65965042 49.96331009 11.65987701 49.1226651 11.66011047 48.25654602 C11.67559433 47.35333115 11.69107819 46.45011627 11.70703125 45.51953125 C11.71127609 44.59154221 11.71552094 43.66355316 11.71989441 42.70744324 C11.73669338 39.74216757 11.77434784 36.7775704 11.8125 33.8125 C11.82754526 31.80274419 11.84123394 29.79297773 11.85351562 27.78320312 C11.88660092 22.85520714 11.93839167 17.92771862 12 13 C8.04 13 4.08 13 0 13 C-2.45695862 7.40359426 -1.87154617 6.55041159 0 0 Z " fill="#996B32" transform="translate(164,51)"/>
<path d="M0 0 C0 0.66 0 1.32 0 2 C0.66 2 1.32 2 2 2 C7.69436638 9.41993196 7.62789843 16.91789766 7 26 C5.88419078 30.67655335 3.43158058 34.66116485 0 38 C-5.29735475 40.99782121 -11.00161152 41.94215526 -17 41 C-22.27982186 39.26186396 -26.03088269 36.79626642 -29 32 C-30.88051747 27.34640062 -31.38436797 23.03689263 -31.375 18.0625 C-31.37628906 17.35609375 -31.37757813 16.6496875 -31.37890625 15.921875 C-31.26747649 10.46181663 -30.3807398 7.22592475 -27 3 C-26.34 3 -25.68 3 -25 3 C-25 2.34 -25 1.68 -25 1 C-15.73807142 -3.70447166 -9.64906821 -3.67583551 0 0 Z M-15 8 C-17.92940724 15.14043015 -17.92940724 21.85956985 -15 29 C-13.35 29.33 -11.7 29.66 -10 30 C-7.36045878 26.20129518 -6.58968522 23.61446412 -6.625 19 C-6.61726563 17.989375 -6.60953125 16.97875 -6.6015625 15.9375 C-7.0558102 12.58853657 -7.95050078 10.67262487 -10 8 C-12.62694422 7.58219121 -12.62694422 7.58219121 -15 8 Z " fill="#DECD81" transform="translate(430,68)"/>
<path d="M0 0 C1.32421875 1.87890625 1.32421875 1.87890625 2 4 C0.875 7.1875 0.875 7.1875 -1 10 C-4.52411261 11.53494683 -7.17055814 10.62781008 -10.75 9.5625 C-11.73484375 9.27503906 -12.7196875 8.98757812 -13.734375 8.69140625 C-14.48203125 8.46324219 -15.2296875 8.23507813 -16 8 C-15.67 9.65 -15.34 11.3 -15 13 C-13.948125 13.103125 -12.89625 13.20625 -11.8125 13.3125 C-8.11371887 13.97949332 -5.97013189 14.74990008 -3 17 C-3 17.66 -3 18.32 -3 19 C-2.34 19 -1.68 19 -1 19 C1.7877446 23.646241 3.15948184 27.66000106 2 33 C-0.29746765 36.99636135 -3.57783905 40.26601183 -8.0625 41.625 C-15.92781325 42.62908254 -22.67458326 42.22051351 -30 39 C-30.33 38.67 -30.66 38.34 -31 38 C-30.4 31.4 -30.4 31.4 -28 29 C-25.27711529 29.23075294 -22.68699709 29.55618719 -20 30 C-18.66703017 30.19006699 -17.33372255 30.37778893 -16 30.5625 C-15.01 30.706875 -14.02 30.85125 -13 31 C-13 29.68 -13 28.36 -13 27 C-13.58007812 26.82984375 -14.16015625 26.6596875 -14.7578125 26.484375 C-20.32931855 24.75592098 -25.63554974 23.00930033 -29.375 18.25 C-30.72820971 13.37844503 -30.48773621 9.36052733 -28.8125 4.6875 C-23.00582474 -3.92239779 -8.82276322 -3.95438859 0 0 Z " fill="#E3D489" transform="translate(350,67)"/>
<path d="M0 0 C0 3.96 0 7.92 0 12 C2.97 12 5.94 12 9 12 C9.89694794 15.58779175 10.08304117 18.34618837 10 22 C5.05 22.495 5.05 22.495 0 23 C0.33 29.27 0.66 35.54 1 42 C3.64 42.99 6.28 43.98 9 45 C9.09765625 51.15234375 9.09765625 51.15234375 9 53 C6.95871653 55.04128347 3.03647677 54.32103654 0.25 54.375 C-0.82507813 54.43107422 -0.82507813 54.43107422 -1.921875 54.48828125 C-5.86819197 54.55356958 -7.76655872 54.17477218 -10.953125 51.7890625 C-14.01934349 47.61104722 -14.12733835 43.77485745 -14.09765625 38.69921875 C-14.09443359 37.72275391 -14.09121094 36.74628906 -14.08789062 35.74023438 C-14.07951172 34.73283203 -14.07113281 33.72542969 -14.0625 32.6875 C-14.05798828 31.66076172 -14.05347656 30.63402344 -14.04882812 29.57617188 C-14.03708184 27.05072118 -14.02065565 24.52539095 -14 22 C-15.98 22 -17.96 22 -20 22 C-20.19412181 20.52168779 -20.38012131 19.04230684 -20.5625 17.5625 C-20.66691406 16.73878906 -20.77132813 15.91507813 -20.87890625 15.06640625 C-20.91886719 14.38449219 -20.95882813 13.70257813 -21 13 C-20 12 -20 12 -16.9375 11.9375 C-15.4834375 11.9684375 -15.4834375 11.9684375 -14 12 C-13.97421875 11.38511719 -13.9484375 10.77023438 -13.921875 10.13671875 C-13.46601942 3.6407767 -13.46601942 3.6407767 -11.5 0.9375 C-7.62274051 -0.51647231 -4.12409714 -0.18194546 0 0 Z " fill="#BA9B5A" transform="translate(494,54)"/>
<path d="M0 0 C5.02692063 0.45699278 8.14896261 2.99241748 12 6 C12.23976563 5.36835937 12.47953125 4.73671875 12.7265625 4.0859375 C14 2 14 2 16.0234375 1.1015625 C17.18746094 0.86566406 17.18746094 0.86566406 18.375 0.625 C19.14585937 0.45226562 19.91671875 0.27953125 20.7109375 0.1015625 C23.38866299 -0.01724443 24.73622491 0.62519595 27 2 C26.88541307 3.43836751 26.75790884 4.87570966 26.625 6.3125 C26.55539062 7.11300781 26.48578125 7.91351563 26.4140625 8.73828125 C26 11 26 11 24 14 C21.87109375 14.6953125 21.87109375 14.6953125 19.4375 15.125 C16.43064045 15.48491013 16.43064045 15.48491013 14 17 C13.84193469 18.92478813 13.748865 20.8549921 13.68359375 22.78515625 C13.64169922 23.95498047 13.59980469 25.12480469 13.55664062 26.33007812 C13.51732422 27.56177734 13.47800781 28.79347656 13.4375 30.0625 C13.39431641 31.29806641 13.35113281 32.53363281 13.30664062 33.80664062 C13.20015802 36.87097335 13.09814576 39.93539073 13 43 C10.17283905 43.94238698 8.36823877 44.13465647 5.4375 44.125 C4.65246094 44.12757812 3.86742187 44.13015625 3.05859375 44.1328125 C1 44 1 44 -1 43 C-1.01981934 42.16339844 -1.03963867 41.32679687 -1.06005859 40.46484375 C-1.13870107 37.32609654 -1.22541003 34.18769914 -1.31738281 31.04931641 C-1.37396123 29.03694667 -1.42144088 27.02432773 -1.46875 25.01171875 C-1.65162235 17.05655599 -1.65162235 17.05655599 -3.15625 9.28125 C-4 6 -4 6 -2.125 2.5 C-1.42375 1.675 -0.7225 0.85 0 0 Z " fill="#996B31" transform="translate(550,65)"/>
<path d="M0 0 C6.27906977 0.46511628 6.27906977 0.46511628 8.9375 2.4375 C10 4 10 4 10 6 C10.66 6 11.32 6 12 6 C12.268125 5.38125 12.53625 4.7625 12.8125 4.125 C14 2 14 2 17 0 C19.2265625 -0.23046875 19.2265625 -0.23046875 21.625 -0.1875 C22.42164063 -0.18105469 23.21828125 -0.17460938 24.0390625 -0.16796875 C26 0 26 0 27 1 C27.04450293 5.38798865 26.70432246 8.97994678 24.1875 12.625 C22 14 22 14 19.9375 13.625 C19.298125 13.41875 18.65875 13.2125 18 13 C17.01 13.66 16.02 14.32 15 15 C14.39582883 17.80379064 14.39582883 17.80379064 14.26953125 21.1015625 C14.18896484 22.31328125 14.10839844 23.525 14.02539062 24.7734375 C13.95513672 26.04445313 13.88488281 27.31546875 13.8125 28.625 C13.73064453 29.90375 13.64878906 31.1825 13.56445312 32.5 C13.36363185 35.66588841 13.18019144 38.83287044 13 42 C8.71 42 4.42 42 0 42 C-0.70841886 37.74948681 -1.14775372 34.11004666 -1.24609375 29.8671875 C-1.27896484 28.73152344 -1.31183594 27.59585938 -1.34570312 26.42578125 C-1.40710036 24.05088384 -1.46436562 21.67587615 -1.51757812 19.30078125 C-1.55173828 18.16769531 -1.58589844 17.03460938 -1.62109375 15.8671875 C-1.65867798 14.32200439 -1.65867798 14.32200439 -1.69702148 12.74560547 C-1.83815383 10.00359052 -1.83815383 10.00359052 -3.10571289 7.80126953 C-3.40082764 7.20685059 -3.69594238 6.61243164 -4 6 C-2.87755007 3.70165014 -1.81522119 1.81522119 0 0 Z " fill="#A67E43" transform="translate(206,66)"/>
<path d="M0 0 C5.28798182 0.41474367 8.11690718 1.35224614 12 5 C12.61875 4.360625 13.2375 3.72125 13.875 3.0625 C16.92016612 0.10689759 18.49739231 -0.12146582 22.625 -0.0625 C23.85089844 -0.04896484 23.85089844 -0.04896484 25.1015625 -0.03515625 C26.04128906 -0.01775391 26.04128906 -0.01775391 27 0 C28.08828929 3.26486787 27.89901381 4.36990083 27.125 7.625 C26.94195312 8.42164062 26.75890625 9.21828125 26.5703125 10.0390625 C26 12 26 12 25 13 C22.68047431 13.28101946 20.36114486 13.44782625 18.03125 13.62109375 C17.3609375 13.74613281 16.690625 13.87117188 16 14 C14.65893595 16.6821281 14.78549581 18.88398032 14.68359375 21.8828125 C14.64169922 23.04941406 14.59980469 24.21601562 14.55664062 25.41796875 C14.51732422 26.64128906 14.47800781 27.86460938 14.4375 29.125 C14.39431641 30.35605469 14.35113281 31.58710937 14.30664062 32.85546875 C14.20031377 35.90350512 14.09963028 38.95173739 14 42 C9.38 42 4.76 42 0 42 C-0.04898437 39.82019531 -0.09796875 37.64039063 -0.1484375 35.39453125 C-0.20251691 33.27296348 -0.25979688 31.15150445 -0.31738281 29.0300293 C-0.35555952 27.56071138 -0.39043182 26.09130361 -0.421875 24.62182617 C-0.46777289 22.50406886 -0.52572372 20.3869241 -0.5859375 18.26953125 C-0.6173584 16.99698486 -0.6487793 15.72443848 -0.68115234 14.41333008 C-0.83160179 11.03781896 -0.83160179 11.03781896 -2.11181641 8.25268555 C-3 6 -3 6 -1.625 2.6875 C-1.08875 1.800625 -0.5525 0.91375 0 0 Z " fill="#CCB36C" transform="translate(444,66)"/>
<path d="M0 0 C0.86882812 0.82886719 1.73765625 1.65773437 2.6328125 2.51171875 C6.42752076 5.77253948 10.03060574 5.77555123 14.875 5.8125 C16.050625 5.85020508 16.050625 5.85020508 17.25 5.88867188 C19.16613555 5.94709064 21.08311793 5.97651926 23 6 C23 8.31 23 10.62 23 13 C22.01 13 21.02 13 20 13 C20 11.68 20 10.36 20 9 C15.71 8.67 11.42 8.34 7 8 C7 9.98 7 11.96 7 14 C2.23822715 20.87811634 2.23822715 20.87811634 -2 22 C-6.00130709 21.71419235 -9.68548104 21.36751354 -13 19 C-15.58333652 15.58630532 -16.36546942 13.2638099 -16 9 C-18.475 8.505 -18.475 8.505 -21 8 C-21 21.53 -21 35.06 -21 49 C-12.585 48.505 -12.585 48.505 -4 48 C-3.01 46.68 -2.02 45.36 -1 44 C0.875 43.0625 0.875 43.0625 3 43 C5.75 44.25 5.75 44.25 8 46 C8 46.99 8 47.98 8 49 C12.29 49 16.58 49 21 49 C21 45.7 21 42.4 21 39 C21.66 39.33 22.32 39.66 23 40 C23.02688151 41.64574566 23.04634123 43.29161413 23.0625 44.9375 C23.07410156 45.85402344 23.08570312 46.77054688 23.09765625 47.71484375 C23 50 23 50 22 51 C19.64686445 51.07271741 17.29166332 51.08370868 14.9375 51.0625 C13.64714844 51.05347656 12.35679688 51.04445312 11.02734375 51.03515625 C10.02832031 51.02355469 9.02929688 51.01195312 8 51 C7.72027344 51.64324219 7.44054687 52.28648438 7.15234375 52.94921875 C6 55 6 55 3.5625 55.8125 C1 56 1 56 -2 55 C-2.66 54.01 -3.32 53.02 -4 52 C-6.71004503 51.489395 -6.71004503 51.489395 -9.8828125 51.48828125 C-11.63271484 51.43510742 -11.63271484 51.43510742 -13.41796875 51.38085938 C-14.64128906 51.35830078 -15.86460938 51.33574219 -17.125 51.3125 C-18.97158203 51.26125977 -18.97158203 51.26125977 -20.85546875 51.20898438 C-23.9035551 51.12628436 -26.95134571 51.05720573 -30 51 C-30.40605469 51.9590625 -30.40605469 51.9590625 -30.8203125 52.9375 C-32 55 -32 55 -34.875 56 C-35.90625 56 -36.9375 56 -38 56 C-39.33333333 54.66666667 -40.66666667 53.33333333 -42 52 C-43.98095578 51.52780427 -43.98095578 51.52780427 -46.1328125 51.3671875 C-48.04707031 51.18542969 -48.04707031 51.18542969 -50 51 C-50.18951925 47.93460135 -50.32783349 44.88092409 -50.4375 41.8125 C-50.49615234 40.94818359 -50.55480469 40.08386719 -50.61523438 39.19335938 C-50.68408848 36.62608493 -50.64671776 34.48864605 -50 32 C-48.38433648 30.32255716 -46.77226476 29.29911392 -44.76147461 28.1340332 C-42.04153517 26.3829426 -40.97053979 24.03792202 -39.5625 21.1875 C-38.2940625 18.6196875 -38.2940625 18.6196875 -37 16 C-32.38 16 -27.76 16 -23 16 C-23 12.7 -23 9.4 -23 6 C-20.03 6 -17.06 6 -14 6 C-13.34 4.68 -12.68 3.36 -12 2 C-7.69145377 -0.83972365 -4.93671109 -1.64557036 0 0 Z M-10.9375 4.0625 C-13.53327109 7.7595073 -13.71253588 9.56644342 -13 14 C-11.15811319 17.13802937 -9.9707781 18.62662381 -6.5625 19.9375 C-2.78220581 20.0297023 -0.29693527 18.92638234 2.75 16.75 C4.59806681 14.16270647 4.87362945 12.15926366 5 9 C3.39588152 5.47093933 2.25840638 4.17227092 -1 2 C-5.36253463 1.43448625 -7.29752588 1.50677349 -10.9375 4.0625 Z M-36 19 C-36.86625 20.7325 -37.7325 22.465 -38.625 24.25 C-40.50364729 28.00729458 -41.51723144 29.71601849 -45.1875 31.875 C-48.40187658 33.79342539 -48.40187658 33.79342539 -48.5859375 37.671875 C-48.54630793 39.0324902 -48.47508093 40.39249197 -48.375 41.75 C-48.34792969 42.44738281 -48.32085937 43.14476563 -48.29296875 43.86328125 C-48.22254783 45.57685705 -48.11492913 47.28883302 -48 49 C-45.05999982 49.16674121 -45.05999982 49.16674121 -42 49 C-41.2884375 48.01 -41.2884375 48.01 -40.5625 47 C-40.046875 46.34 -39.53125 45.68 -39 45 C-35.3125 44.75 -35.3125 44.75 -32 45 C-31.34 46.32 -30.68 47.64 -30 49 C-27.69 49 -25.38 49 -23 49 C-23 39.1 -23 29.2 -23 19 C-27.29 19 -31.58 19 -36 19 Z M-38 46 C-38.66 46.66 -39.32 47.32 -40 48 C-39.59471099 50.78237655 -39.59471099 50.78237655 -38 53 C-36.33382885 53.04063832 -34.66611905 53.042721 -33 53 C-32.32041397 50.60280568 -32.32041397 50.60280568 -32 48 C-32.66 47.34 -33.32 46.68 -34 46 C-35.32 46 -36.64 46 -38 46 Z M0 46 C-0.66 47.32 -1.32 48.64 -2 50 C-0.68 51.32 0.64 52.64 2 54 C3.32 53.34 4.64 52.68 6 52 C5.67 50.02 5.34 48.04 5 46 C3.35 46 1.7 46 0 46 Z " fill="#C9BF90" transform="translate(90,61)"/>
<path d="M0 0 C9.41426404 -0.1239974 9.41426404 -0.1239974 13.75 3.4375 C15 5 15 5 15 8 C13.68 8 12.36 8 11 8 C12.32 8.33 13.64 8.66 15 9 C14.84152588 9.68860107 14.68305176 10.37720215 14.51977539 11.08666992 C13.94788283 14.29211563 13.78761375 17.35894123 13.68359375 20.61328125 C13.64169922 21.86044922 13.59980469 23.10761719 13.55664062 24.39257812 C13.51732422 25.68615234 13.47800781 26.97972656 13.4375 28.3125 C13.39431641 29.62541016 13.35113281 30.93832031 13.30664062 32.29101562 C13.20072832 35.52722482 13.09987581 38.76359889 13 42 C8.71 42 4.42 42 0 42 C-5.11261045 31.7747791 -0.52576086 11.16402846 0 0 Z " fill="#C9B06E" transform="translate(278,66)"/>
<path d="M0 0 C6.65720156 -0.55068763 11.80615281 -0.57915626 17.34375 3.44921875 C21.90260854 7.71777262 23.78135023 12.7684817 24 19 C23.50992248 21.75607952 22.80270807 24.30856707 22 27 C15.26188501 28.41030314 8.80977041 27.66561666 2 27 C1.67 25.35 1.34 23.7 1 22 C2.32 21.67 3.64 21.34 5 21 C5 20.34 5 19.68 5 19 C4.34 19 3.68 19 3 19 C3 18.34 3 17.68 3 17 C2.01 17 1.02 17 0 17 C-0.125 12.25 -0.125 12.25 1 10 C0.01 9.67 -0.98 9.34 -2 9 C-1.505 7.88625 -1.505 7.88625 -1 6.75 C0.22782871 3.86116688 0.22782871 3.86116688 0 0 Z M3 11 C2.67 12.65 2.34 14.3 2 16 C4.31 16 6.62 16 9 16 C8.67 14.35 8.34 12.7 8 11 C6.35 11 4.7 11 3 11 Z " fill="#A2783E" transform="translate(519,65)"/>
<path d="M0 0 C2.125 1.625 2.125 1.625 3 4 C2.1875 7.25 2.1875 7.25 1 10 C-0.65 10.33 -2.3 10.66 -4 11 C-4 12.65 -4 14.3 -4 16 C-3.360625 16.103125 -2.72125 16.20625 -2.0625 16.3125 C-1.381875 16.539375 -0.70125 16.76625 0 17 C0.33 17.99 0.66 18.98 1 20 C1.66 20.33 2.32 20.66 3 21 C3 23 3 23 0.5 25.625 C-2.03152452 27.64782574 -3.81887324 28.38921199 -7.0625 28.5 C-12.09214387 27.86131506 -14.48975607 26.71855343 -17.8125 22.9375 C-19.57843205 18.56914177 -19.76750972 14.64126163 -19 10 C-17.22601793 5.92893859 -14.81606087 3.56217527 -11.1875 1.0625 C-7.0464291 -0.31785697 -4.35618223 -0.49988976 0 0 Z " fill="#B69655" transform="translate(253,81)"/>
<path d="M0 0 C1.32 0 2.64 0 4 0 C4.33 0.66 4.66 1.32 5 2 C5.66 1.34 6.32 0.68 7 0 C7 0.66 7 1.32 7 2 C7.66 2 8.32 2 9 2 C14.69436638 9.41993196 14.62789843 16.91789766 14 26 C13.33177176 28.80066247 12.48374133 30.45644343 11 33 C10.484375 33.94875 9.96875 34.8975 9.4375 35.875 C5.74954223 39.09014267 1.78162833 39.10728012 -3 39 C-5.3125 38.5078125 -5.3125 38.5078125 -7 38 C-6.2575 37.71125 -5.515 37.4225 -4.75 37.125 C-2.43260203 36.17697356 -0.22082885 35.15154089 2 34 C1.649375 33.4225 1.29875 32.845 0.9375 32.25 C0 30 0 30 0.46875 28.359375 C1.25026864 24.8885128 0.83942252 21.51405126 0.5625 18 C0.26836839 13.99109515 0 10.0236232 0 6 C-0.33 5.01 -0.66 4.02 -1 3 C-0.67 2.01 -0.34 1.02 0 0 Z " fill="#D7C37B" transform="translate(423,68)"/>
<path d="M0 0 C2.31 0.33 4.62 0.66 7 1 C7.33 1.99 7.66 2.98 8 4 C8.66 4 9.32 4 10 4 C14.27466158 13.43987765 13.66808803 21.70204571 11.046875 31.58984375 C9.82820583 34.3955112 8.26848514 35.97992336 6 38 C6 37.34 6 36.68 6 36 C4.68 35.67 3.36 35.34 2 35 C1.505 37.475 1.505 37.475 1 40 C0.34 39.67 -0.32 39.34 -1 39 C-1.625 36.9375 -1.625 36.9375 -2 35 C-0.68 34.34 0.64 33.68 2 33 C2 32.01 2 31.02 2 30 C1.34 30 0.68 30 0 30 C-2.44362226 25.32727194 -2.05589977 21.39280827 -1.625 16.3125 C-1.51290615 14.78776884 -1.40092177 13.26302963 -1.2890625 11.73828125 C-1.19367188 10.50464844 -1.09828125 9.27101563 -1 8 C-0.89459074 5.78918149 -0.89459074 5.78918149 -2 3 C-1.01 3 -0.02 3 1 3 C0.67 2.01 0.34 1.02 0 0 Z " fill="#EBE093" transform="translate(382,67)"/>
<path d="M0 0 C0 0.33 0 0.66 0 1 C-0.59167969 1.10957031 -1.18335938 1.21914062 -1.79296875 1.33203125 C-6.41345763 2.25914403 -10.0876779 3.22351335 -14 6 C-13.54625 6.9075 -13.0925 7.815 -12.625 8.75 C-11.41666667 11.16666667 -10.20833333 13.58333333 -9 16 C-8.67 15.34 -8.34 14.68 -8 14 C-6.98945138 17.03164585 -6.9734088 18.51750751 -7.3125 21.625 C-7.43044922 22.81996094 -7.43044922 22.81996094 -7.55078125 24.0390625 C-7.69902344 24.68617187 -7.84726562 25.33328125 -8 26 C-8.66 26.33 -9.32 26.66 -10 27 C-10.68132451 28.66072849 -11.34742127 30.327767 -12 32 C-12.66 32.66 -13.32 33.32 -14 34 C-14.99 34 -15.98 34 -17 34 C-15.6910428 37.12197478 -15.6910428 37.12197478 -13 39 C-13 39.66 -13 40.32 -13 41 C-16.25813633 39.95274189 -17.53606177 38.42983232 -19.1875 35.5625 C-22.88005063 28.30472808 -22.61064093 20.96212334 -22 13 C-20.98756123 10.04668516 -19.96382042 8.45477552 -18 6 C-17.34 6 -16.68 6 -16 6 C-16 5.34 -16 4.68 -16 4 C-10.45108785 1.18150494 -6.258654 -0.5326514 0 0 Z " fill="#E2D388" transform="translate(421,65)"/>
<path d="M0 0 C1.98 0 3.96 0 6 0 C6 2.97 6 5.94 6 9 C2.7 9.33 -0.6 9.66 -4 10 C-3.67 16.27 -3.34 22.54 -3 29 C-0.36 29.99 2.28 30.98 5 32 C5.09765625 38.15234375 5.09765625 38.15234375 5 40 C4 41 4 41 0.40234375 41.09765625 C-1.08596867 41.0909822 -2.57426432 41.07902183 -4.0625 41.0625 C-5.20041992 41.05573242 -5.20041992 41.05573242 -6.36132812 41.04882812 C-8.24091871 41.0370068 -10.12046899 41.01907078 -12 41 C-12.33 40.34 -12.66 39.68 -13 39 C-12.01 38.505 -12.01 38.505 -11 38 C-10.67 37.01 -10.34 36.02 -10 35 C-9.34 35 -8.68 35 -8 35 C-6.22100143 31.94103297 -5.77384219 29.81913363 -5.875 26.296875 C-5.89046875 25.39839844 -5.9059375 24.49992187 -5.921875 23.57421875 C-5.97352644 21.70701925 -6.02560249 19.83983145 -6.078125 17.97265625 C-6.17606189 12.25150944 -5.64891431 7.48779295 -4 2 C-2.68 2 -1.36 2 0 2 C0 1.34 0 0.68 0 0 Z " fill="#B49557" transform="translate(498,67)"/>
<path d="M0 0 C0.33 0.33 0.66 0.66 1 1 C0.94921875 2.9609375 0.94921875 2.9609375 0.6875 5.375 C0.56955078 6.56222656 0.56955078 6.56222656 0.44921875 7.7734375 C0 10 0 10 -2 13 C-4.12890625 13.6953125 -4.12890625 13.6953125 -6.5625 14.125 C-9.56935955 14.48491013 -9.56935955 14.48491013 -12 16 C-12.15806531 17.92478813 -12.251135 19.8549921 -12.31640625 21.78515625 C-12.35830078 22.95498047 -12.40019531 24.12480469 -12.44335938 25.33007812 C-12.48267578 26.56177734 -12.52199219 27.79347656 -12.5625 29.0625 C-12.60568359 30.29806641 -12.64886719 31.53363281 -12.69335938 32.80664062 C-12.79984198 35.87097335 -12.90185424 38.93539073 -13 42 C-15.82716095 42.94238698 -17.63176123 43.13465647 -20.5625 43.125 C-21.74005859 43.12886719 -21.74005859 43.12886719 -22.94140625 43.1328125 C-25 43 -25 43 -27 42 C-27 40.02 -27 38.04 -27 36 C-26.67 36 -26.34 36 -26 36 C-26 37.65 -26 39.3 -26 41 C-22.04 41 -18.08 41 -14 41 C-14.05329468 39.6682373 -14.05329468 39.6682373 -14.10766602 38.30957031 C-14.2370861 35.00730571 -14.36136065 31.70492997 -14.48217773 28.40234375 C-14.53546157 26.97453122 -14.59077975 25.54679306 -14.64819336 24.11914062 C-14.73048625 22.06396518 -14.80539678 20.00863107 -14.87890625 17.953125 C-14.9260376 16.71723633 -14.97316895 15.48134766 -15.02172852 14.20800781 C-15.00347059 11.51240012 -14.7605088 9.5463175 -14 7 C-13.95875 6.154375 -13.9175 5.30875 -13.875 4.4375 C-13 2 -13 2 -9.8125 0.125 C-5.90587667 -1.0277741 -3.86935769 -1.10553077 0 0 Z " fill="#936329" transform="translate(576,66)"/>
<path d="M0 0 C1.22589844 0.01353516 1.22589844 0.01353516 2.4765625 0.02734375 C3.41628906 0.04474609 3.41628906 0.04474609 4.375 0.0625 C5.46328929 3.32736787 5.27401381 4.43240083 4.5 7.6875 C4.31695312 8.48414062 4.13390625 9.28078125 3.9453125 10.1015625 C3.375 12.0625 3.375 12.0625 2.375 13.0625 C0.05547431 13.34351946 -2.26385514 13.51032625 -4.59375 13.68359375 C-5.2640625 13.80863281 -5.934375 13.93367188 -6.625 14.0625 C-7.96606405 16.7446281 -7.83950419 18.94648032 -7.94140625 21.9453125 C-7.98330078 23.11191406 -8.02519531 24.27851562 -8.06835938 25.48046875 C-8.12733398 27.31544922 -8.12733398 27.31544922 -8.1875 29.1875 C-8.23068359 30.41855469 -8.27386719 31.64960937 -8.31835938 32.91796875 C-8.42468623 35.96600512 -8.52536972 39.01423739 -8.625 42.0625 C-13.245 42.0625 -17.865 42.0625 -22.625 42.0625 C-22.625 32.1625 -22.625 22.2625 -22.625 12.0625 C-22.295 12.0625 -21.965 12.0625 -21.625 12.0625 C-21.295 21.3025 -20.965 30.5425 -20.625 40.0625 C-17.325 40.3925 -14.025 40.7225 -10.625 41.0625 C-10.59994385 40.30106689 -10.5748877 39.53963379 -10.54907227 38.75512695 C-10.43280952 35.29492624 -10.31022022 31.83497746 -10.1875 28.375 C-10.14818359 27.17681641 -10.10886719 25.97863281 -10.06835938 24.74414062 C-10.02646484 23.58720703 -9.98457031 22.43027344 -9.94140625 21.23828125 C-9.90474854 20.17520752 -9.86809082 19.11213379 -9.83032227 18.0168457 C-9.63992715 15.27728412 -9.18478244 12.74530075 -8.625 10.0625 C-8.625 9.0725 -8.625 8.0825 -8.625 7.0625 C-9.615 6.7325 -10.605 6.4025 -11.625 6.0625 C-5.63945087 -0.08056358 -5.63945087 -0.08056358 0 0 Z " fill="#C3AE70" transform="translate(466.625,65.9375)"/>
<path d="M0 0 C2 0.8125 2 0.8125 3.25 2.5625 C4.0957901 5.09987029 4.14764761 7.15484296 4 9.8125 C-3.53146548 14.27559065 -10.40858218 14.25245881 -19 13.8125 C-19.33 12.8225 -19.66 11.8325 -20 10.8125 C-18.02 9.8225 -16.04 8.8325 -14 7.8125 C-14.66 7.4825 -15.32 7.1525 -16 6.8125 C-15.34 5.1625 -14.68 3.5125 -14 1.8125 C-12.95199219 1.72162109 -12.95199219 1.72162109 -11.8828125 1.62890625 C-10.97273437 1.54511719 -10.06265625 1.46132812 -9.125 1.375 C-8.22007812 1.29378906 -7.31515625 1.21257812 -6.3828125 1.12890625 C-3.92701666 0.80280877 -2.44902738 -0.22959632 0 0 Z " fill="#A37F44" transform="translate(537,95.1875)"/>
<path d="M0 0 C0.66 0.99 1.32 1.98 2 3 C2.99 3.33 3.98 3.66 5 4 C4.54625 4.37125 4.0925 4.7425 3.625 5.125 C1.52970606 7.54264685 0.87986715 9.95430602 0 13 C-1.10408203 12.98259766 -1.10408203 12.98259766 -2.23046875 12.96484375 C-3.20628906 12.95582031 -4.18210938 12.94679688 -5.1875 12.9375 C-6.15042969 12.92589844 -7.11335937 12.91429688 -8.10546875 12.90234375 C-10.85576513 12.99513378 -13.32479591 13.37888315 -16 14 C-19 7.375 -19 7.375 -19 4 C-6.49685535 0 -6.49685535 0 0 0 Z " fill="#B4965A" transform="translate(254,65)"/>
<path d="M0 0 C2.97 0.33 5.94 0.66 9 1 C8.34 1.66 7.68 2.32 7 3 C6.071875 3 5.14375 3 4.1875 3 C0.88926079 3.6481112 0.88926079 3.6481112 -0.29296875 6.14453125 C-1.0850369 7.89528384 -1.83311836 9.6667467 -2.53125 11.45703125 C-4 14 -4 14 -7.1015625 15.83984375 C-10.37336553 17.78587275 -10.37336553 17.78587275 -10.8046875 21.671875 C-10.85744684 23.03042797 -10.88014014 24.39043268 -10.875 25.75 C-10.895625 26.44738281 -10.91625 27.14476563 -10.9375 27.86328125 C-10.98439655 29.57500527 -10.9957404 31.28763898 -11 33 C-8.04766151 32.65995219 -8.04766151 32.65995219 -5 32 C-4.2884375 30.9790625 -4.2884375 30.9790625 -3.5625 29.9375 C-2 28 -2 28 1.5625 27.5625 C2.696875 27.706875 3.83125 27.85125 5 28 C7 31 7 31 6.625 33.6875 C6.315625 34.8321875 6.315625 34.8321875 6 36 C5.6596875 35.0409375 5.6596875 35.0409375 5.3125 34.0625 C4.14749104 31.72806339 4.14749104 31.72806339 1.375 31.25 C0.59125 31.1675 -0.1925 31.085 -1 31 C-1.33 32.32 -1.66 33.64 -2 35 C-1.01 35.66 -0.02 36.32 1 37 C1 37.66 1 38.32 1 39 C-1.4375 38.625 -1.4375 38.625 -4 38 C-4.33 37.34 -4.66 36.68 -5 36 C-6.89533342 35.53476937 -6.89533342 35.53476937 -9.0625 35.375 C-11.0115625 35.189375 -11.0115625 35.189375 -13 35 C-13.18951925 31.93460135 -13.32783349 28.88092409 -13.4375 25.8125 C-13.49615234 24.94818359 -13.55480469 24.08386719 -13.61523438 23.19335938 C-13.68408848 20.62608493 -13.64671776 18.48864605 -13 16 C-11.38433648 14.32255716 -9.77226476 13.29911392 -7.76147461 12.1340332 C-5.04153517 10.3829426 -3.97053979 8.03792202 -2.5625 5.1875 C-2.06878906 4.21167969 -1.57507812 3.23585938 -1.06640625 2.23046875 C-0.71449219 1.49441406 -0.36257812 0.75835937 0 0 Z " fill="#AB9456" transform="translate(53,77)"/>
<path d="M0 0 C1.84765625 0.828125 1.84765625 0.828125 3.171875 2.70703125 C3.84765625 4.828125 3.84765625 4.828125 2.72265625 8.015625 C0.84765625 10.828125 0.84765625 10.828125 -0.91015625 11.59375 C-3.86346547 11.90245828 -6.06429561 11.23528218 -8.90234375 10.390625 C-9.8871875 10.10316406 -10.87203125 9.81570312 -11.88671875 9.51953125 C-12.634375 9.29136719 -13.38203125 9.06320313 -14.15234375 8.828125 C-14.15234375 5.828125 -14.15234375 5.828125 -12.15234375 3.640625 C-11.49234375 3.0425 -10.83234375 2.444375 -10.15234375 1.828125 C-13.45234375 1.498125 -16.75234375 1.168125 -20.15234375 0.828125 C-13.48520677 -2.50544349 -7.1550866 -1.36287364 0 0 Z " fill="#E6DA91" transform="translate(348.15234375,66.171875)"/>
<path d="M0 0 C1 1 1 1 1.01953125 2.92578125 C0.68198347 6.81713394 0.44301724 9.35838882 -1.8125 12.625 C-4 14 -4 14 -5.9375 13.5625 C-6.618125 13.376875 -7.29875 13.19125 -8 13 C-10.72981832 14.35400645 -10.72981832 14.35400645 -13 16 C-13 15.01 -13 14.02 -13 13 C-12.34 12.67 -11.68 12.34 -11 12 C-11.33 11.01 -11.66 10.02 -12 9 C-12.99 9 -13.98 9 -15 9 C-14.18820936 5.95578511 -13.47032662 3.56439194 -11.4375 1.125 C-7.74003755 -0.58152113 -4.0131609 -0.42329486 0 0 Z " fill="#A8874F" transform="translate(232,66)"/>
<path d="M0 0 C0.66 0.33 1.32 0.66 2 1 C2.02688151 2.64574566 2.04634123 4.29161413 2.0625 5.9375 C2.07410156 6.85402344 2.08570313 7.77054687 2.09765625 8.71484375 C2 11 2 11 1 12 C-1.35313555 12.07271741 -3.70833668 12.08370868 -6.0625 12.0625 C-7.35285156 12.05347656 -8.64320312 12.04445313 -9.97265625 12.03515625 C-10.97167969 12.02355469 -11.97070312 12.01195313 -13 12 C-13.27972656 12.64324219 -13.55945313 13.28648438 -13.84765625 13.94921875 C-15 16 -15 16 -17.4375 16.8125 C-20 17 -20 17 -23 16 C-23.66 15.01 -24.32 14.02 -25 13 C-27.77262255 12.61605333 -30.34323528 12.39657752 -33.125 12.3125 C-33.87910156 12.27833984 -34.63320312 12.24417969 -35.41015625 12.20898438 C-37.27291201 12.12645722 -39.13643326 12.06155289 -41 12 C-40.67 11.34 -40.34 10.68 -40 10 C-36.83725053 9.73580852 -33.71861849 9.6332227 -30.546875 9.609375 C-26.34894876 9.50334954 -26.34894876 9.50334954 -23.140625 7.01953125 C-22.76421875 6.35308594 -22.3878125 5.68664062 -22 5 C-20.125 4.0625 -20.125 4.0625 -18 4 C-15.25 5.25 -15.25 5.25 -13 7 C-13 7.99 -13 8.98 -13 10 C-8.71 10 -4.42 10 0 10 C0 6.7 0 3.4 0 0 Z M-21 7 C-21.66 8.32 -22.32 9.64 -23 11 C-21.68 12.32 -20.36 13.64 -19 15 C-17.68 14.34 -16.36 13.68 -15 13 C-15.33 11.02 -15.66 9.04 -16 7 C-17.65 7 -19.3 7 -21 7 Z " fill="#E3DCAA" transform="translate(111,100)"/>
<path d="M0 0 C4.10597317 0.33112687 8.03795597 0.84440382 12 2 C12.625 4.375 12.625 4.375 13 7 C12.34 7.66 11.68 8.32 11 9 C11.66 9.66 12.32 10.32 13 11 C12.01 11.33 11.02 11.66 10 12 C9.67 11.67 9.34 11.34 9 11 C6.73608432 10.96843145 4.48860139 11.06805369 2.2265625 11.16015625 C0 11 0 11 -3 9 C-2.25 2.25 -2.25 2.25 0 0 Z " fill="#DDCC86" transform="translate(322,96)"/>
<path d="M0 0 C0.33 0 0.66 0 1 0 C1 12.87 1 25.74 1 39 C1.66 39.33 2.32 39.66 3 40 C2 41 2 41 -0.28515625 41.09765625 C-1.65994141 41.08025391 -1.65994141 41.08025391 -3.0625 41.0625 C-3.98160156 41.05347656 -4.90070312 41.04445312 -5.84765625 41.03515625 C-6.55792969 41.02355469 -7.26820312 41.01195312 -8 41 C-8.26554687 41.64453125 -8.53109375 42.2890625 -8.8046875 42.953125 C-9.19914062 43.62859375 -9.59359375 44.3040625 -10 45 C-13.125 45.75 -13.125 45.75 -16 46 C-15.01 45.505 -15.01 45.505 -14 45 C-14 44.34 -14 43.68 -14 43 C-11.525 42.505 -11.525 42.505 -9 42 C-8.67 41.01 -8.34 40.02 -8 39 C-5.69 39 -3.38 39 -1 39 C-1 29.1 -1 19.2 -1 9 C-3.31 9 -5.62 9 -8 9 C-8.66 8.01 -9.32 7.02 -10 6 C-7.03 6 -4.06 6 -1 6 C-0.67 4.02 -0.34 2.04 0 0 Z " fill="#C0B088" transform="translate(68,71)"/>
<path d="M0 0 C8.25 0 16.5 0 25 0 C25 0.33 25 0.66 25 1 C23.72382813 1.06058594 22.44765625 1.12117188 21.1328125 1.18359375 C19.46352984 1.26799568 17.79425963 1.35264386 16.125 1.4375 C15.28324219 1.47681641 14.44148438 1.51613281 13.57421875 1.55664062 C12.76855469 1.59853516 11.96289062 1.64042969 11.1328125 1.68359375 C10.01737061 1.73858032 10.01737061 1.73858032 8.87939453 1.79467773 C6.91135688 1.89955865 6.91135688 1.89955865 5 3 C5.33 3.99 5.66 4.98 6 6 C8.97 6.495 8.97 6.495 12 7 C11.01 7.495 11.01 7.495 10 8 C10 9.65 10 11.3 10 13 C6.7 13 3.4 13 0 13 C-2.45695862 7.40359426 -1.87154617 6.55041159 0 0 Z " fill="#8A5928" transform="translate(164,51)"/>
<path d="M0 0 C7.84540858 -0.64897681 12.78476975 0.01356885 19 5 C18.34 5.66 17.68 6.32 17 7 C16.608125 6.484375 16.21625 5.96875 15.8125 5.4375 C14.9153125 4.7259375 14.9153125 4.7259375 14 4 C11.34533951 4.23043864 11.34533951 4.23043864 9 5 C8.67 6.65 8.34 8.3 8 10 C3.94568308 11.15837626 1.78187881 10.83691257 -2 9 C-1.505 7.88625 -1.505 7.88625 -1 6.75 C0.22782871 3.86116688 0.22782871 3.86116688 0 0 Z " fill="#A68246" transform="translate(519,65)"/>
<path d="M0 0 C0.66 0 1.32 0 2 0 C2 13.86 2 27.72 2 42 C0.35 42 -1.3 42 -3 42 C-2.67 41.34 -2.34 40.68 -2 40 C-1.34 40 -0.68 40 0 40 C0 26.8 0 13.6 0 0 Z " fill="#977344" transform="translate(189,65)"/>
<path d="M0 0 C2.46800047 1.15173355 4.04783565 2.04783565 6 4 C8.89967757 4.30675232 11.71783178 4.51173371 14.625 4.625 C15.42679688 4.66367188 16.22859375 4.70234375 17.0546875 4.7421875 C19.03607556 4.83653931 21.01800645 4.91936215 23 5 C23 7.31 23 9.62 23 12 C22.01 12 21.02 12 20 12 C20 10.68 20 9.36 20 8 C15.71 7.67 11.42 7.34 7 7 C7 8.98 7 10.96 7 13 C6.34 13.66 5.68 14.32 5 15 C3.45522376 13.45522376 3.81021351 11.82972722 3.6875 9.6875 C3.35843679 6.24330506 3.17989738 5.22350887 0.9375 2.4375 C0.298125 1.963125 -0.34125 1.48875 -1 1 C-0.67 0.67 -0.34 0.34 0 0 Z " fill="#CCC498" transform="translate(90,62)"/>
<path d="M0 0 C1.0528418 0.01353516 1.0528418 0.01353516 2.12695312 0.02734375 C3.85561525 0.05086296 5.58410145 0.08673287 7.3125 0.125 C8.5625 7.75 8.5625 7.75 6.3125 11.125 C4.9925 10.795 3.6725 10.465 2.3125 10.125 C2.6425 9.465 2.9725 8.805 3.3125 8.125 C2.6525 7.465 1.9925 6.805 1.3125 6.125 C1.9725 5.135 2.6325 4.145 3.3125 3.125 C-3.6175 2.63 -3.6175 2.63 -10.6875 2.125 C-7.00662647 -0.32891569 -4.24394412 -0.10302759 0 0 Z " fill="#A2753D" transform="translate(196.6875,50.875)"/>
<path d="M0 0 C0 0.33 0 0.66 0 1 C-0.95712891 1.19916016 -0.95712891 1.19916016 -1.93359375 1.40234375 C-3.17302734 1.66724609 -3.17302734 1.66724609 -4.4375 1.9375 C-5.26121094 2.11152344 -6.08492187 2.28554687 -6.93359375 2.46484375 C-8.97661204 2.80752994 -8.97661204 2.80752994 -10 4 C-10.15806531 5.92478813 -10.251135 7.8549921 -10.31640625 9.78515625 C-10.35830078 10.95498047 -10.40019531 12.12480469 -10.44335938 13.33007812 C-10.48267578 14.56177734 -10.52199219 15.79347656 -10.5625 17.0625 C-10.60568359 18.29806641 -10.64886719 19.53363281 -10.69335938 20.80664062 C-10.79984198 23.87097335 -10.90185424 26.93539073 -11 30 C-13.82716095 30.94238698 -15.63176123 31.13465647 -18.5625 31.125 C-19.74005859 31.12886719 -19.74005859 31.12886719 -20.94140625 31.1328125 C-23 31 -23 31 -25 30 C-25 28.02 -25 26.04 -25 24 C-24.67 24 -24.34 24 -24 24 C-24 25.65 -24 27.3 -24 29 C-20.04 29 -16.08 29 -12 29 C-12.02320313 27.07414062 -12.04640625 25.14828125 -12.0703125 23.1640625 C-12.08906636 20.65104553 -12.10726697 18.13802438 -12.125 15.625 C-12.14175781 14.35398437 -12.15851562 13.08296875 -12.17578125 11.7734375 C-12.18222656 10.56171875 -12.18867187 9.35 -12.1953125 8.1015625 C-12.20578613 6.98088379 -12.21625977 5.86020508 -12.22705078 4.70556641 C-12 2 -12 2 -10 0 C-6.49555486 -1.3767463 -3.62123372 -0.7407069 0 0 Z " fill="#7B613C" transform="translate(574,78)"/>
<path d="M0 0 C3.34061895 3.05013035 3.92596126 5.24727276 4.375 9.8125 C4.34474442 13.09825628 3.77009012 14.82961207 1.6875 17.375 C-3 21.95348837 -3 21.95348837 -6.6875 22.125 C-7.450625 22.08375 -8.21375 22.0425 -9 22 C-6.95203993 18.9280599 -5.31709697 17.54797859 -2 16 C-1.67 15.34 -1.34 14.68 -1 14 C-0.34 14 0.32 14 1 14 C1.33 12.02 1.66 10.04 2 8 C0.68 7.34 -0.64 6.68 -2 6 C-1.34 4.02 -0.68 2.04 0 0 Z " fill="#E9DF9B" transform="translate(348,86)"/>
<path d="M0 0 C6.75 0.75 6.75 0.75 9 3 C8.401875 3.2475 7.80375 3.495 7.1875 3.75 C4.71352479 5.16370012 3.56629745 6.65055383 2 9 C2.99 10.485 2.99 10.485 4 12 C3.34 12.66 2.68 13.32 2 14 C2 13.34 2 12.68 2 12 C1.01 11.67 0.02 11.34 -1 11 C-2.375 8.8125 -2.375 8.8125 -3 6 C-1.625 2.6875 -1.625 2.6875 0 0 Z " fill="#CFBB7E" transform="translate(444,66)"/>
<path d="M0 0 C0.66 0.33 1.32 0.66 2 1 C2.02688151 2.64574566 2.04634123 4.29161413 2.0625 5.9375 C2.07410156 6.85402344 2.08570312 7.77054687 2.09765625 8.71484375 C2 11 2 11 1 12 C-1.69235776 12.23678716 -4.36498156 12.42198025 -7.0625 12.5625 C-8.20041992 12.62727539 -8.20041992 12.62727539 -9.36132812 12.69335938 C-11.24065438 12.79973633 -13.12030244 12.90039934 -15 13 C-15.33 11.02 -15.66 9.04 -16 7 C-17.65 7 -19.3 7 -21 7 C-18 5 -18 5 -15.8125 5.375 C-15.214375 5.58125 -14.61625 5.7875 -14 6 C-13.67 7.32 -13.34 8.64 -13 10 C-8.71 10 -4.42 10 0 10 C0 6.7 0 3.4 0 0 Z " fill="#C9BC8A" transform="translate(111,100)"/>
<path d="M0 0 C1.98 0 3.96 0 6 0 C6 2.97 6 5.94 6 9 C2.7 8.67 -0.6 8.34 -4 8 C-4 6.02 -4 4.04 -4 2 C-2.68 2 -1.36 2 0 2 C0 1.34 0 0.68 0 0 Z " fill="#B7994D" transform="translate(498,67)"/>
<path d="M0 0 C3.3 0 6.6 0 10 0 C10 0.33 10 0.66 10 1 C5.545 1.495 5.545 1.495 1 2 C1.33 8.27 1.66 14.54 2 21 C4.64 21.99 7.28 22.98 10 24 C10 26.64 10 29.28 10 32 C9.67 31.01 9.34 30.02 9 29 C6.98491642 28.26676204 6.98491642 28.26676204 5 28 C5.66 26.68 6.32 25.36 7 24 C4.69 23.67 2.38 23.34 0 23 C-0.19635974 19.54210946 -0.38058252 16.08367803 -0.5625 12.625 C-0.61857422 11.64015625 -0.67464844 10.6553125 -0.73242188 9.640625 C-0.80493164 8.22910156 -0.80493164 8.22910156 -0.87890625 6.7890625 C-0.9260376 5.91975098 -0.97316895 5.05043945 -1.02172852 4.15478516 C-1 2 -1 2 0 0 Z " fill="#AB9361" transform="translate(493,75)"/>
<path d="M0 0 C0.81694336 0.10473633 1.63388672 0.20947266 2.47558594 0.31738281 C3.36503906 0.42050781 4.25449219 0.52363281 5.17089844 0.62988281 C6.09128906 0.75878906 7.01167969 0.88769531 7.95996094 1.02050781 C9.36375 1.19066406 9.36375 1.19066406 10.79589844 1.36425781 C13.10377624 1.64685509 15.40716306 1.94951174 17.70996094 2.27050781 C17.70996094 2.93050781 17.70996094 3.59050781 17.70996094 4.27050781 C9.78996094 4.27050781 1.86996094 4.27050781 -6.29003906 4.27050781 C-2.29003906 0.27050781 -2.29003906 0.27050781 0 0 Z " fill="#AA9672" transform="translate(109.2900390625,80.7294921875)"/>
<path d="M0 0 C1.134375 0.144375 2.26875 0.28875 3.4375 0.4375 C5.4375 3.4375 5.4375 3.4375 5.0625 6.125 C4.753125 7.2696875 4.753125 7.2696875 4.4375 8.4375 C4.210625 7.798125 3.98375 7.15875 3.75 6.5 C2.58499104 4.16556339 2.58499104 4.16556339 -0.1875 3.6875 C-0.97125 3.605 -1.755 3.5225 -2.5625 3.4375 C-2.8925 4.7575 -3.2225 6.0775 -3.5625 7.4375 C-2.5725 8.0975 -1.5825 8.7575 -0.5625 9.4375 C-0.5625 10.0975 -0.5625 10.7575 -0.5625 11.4375 C-3 11.0625 -3 11.0625 -5.5625 10.4375 C-5.8925 9.7775 -6.2225 9.1175 -6.5625 8.4375 C-9.59184491 7.77977572 -9.59184491 7.77977572 -12.5625 7.4375 C-9.5625 5.4375 -9.5625 5.4375 -6.5625 4.4375 C-6.15 3.756875 -5.7375 3.07625 -5.3125 2.375 C-3.5625 0.4375 -3.5625 0.4375 0 0 Z " fill="#AE9B70" transform="translate(54.5625,104.5625)"/>
<path d="M0 0 C3.625 -0.1875 3.625 -0.1875 7 0 C7 0.66 7 1.32 7 2 C6.01 2.66 5.02 3.32 4 4 C7.3 4 10.6 4 14 4 C10.9194274 7.0805726 7.79465384 7.15082622 3.5625 7.1875 C-0.03901278 7.15778455 -2.7512947 6.67675112 -6 5 C-5.38125 4.731875 -4.7625 4.46375 -4.125 4.1875 C-1.7004767 3.04443152 -1.7004767 3.04443152 0 0 Z " fill="#D9CC8A" transform="translate(414,102)"/>
<path d="M0 0 C0.66 0.99 1.32 1.98 2 3 C1.67 3.33 1.34 3.66 1 4 C0.84580627 6.76362609 0.76828082 9.48502556 0.75 12.25 C0.729375 13.01441406 0.70875 13.77882813 0.6875 14.56640625 C0.65522516 19.23818914 1.04135658 22.16902928 4 26 C4.556875 26.556875 5.11375 27.11375 5.6875 27.6875 C6.120625 28.120625 6.55375 28.55375 7 29 C7 29.66 7 30.32 7 31 C3.74186367 29.95274189 2.46393823 28.42983232 0.8125 25.5625 C-1.76281946 20.50066519 -2.18254056 16.57441159 -2.1875 11 C-2.20586914 9.91332031 -2.20586914 9.91332031 -2.22460938 8.8046875 C-2.23515833 4.99299702 -2.1642464 3.2463696 0 0 Z " fill="#E0D49D" transform="translate(401,75)"/>
<path d="M0 0 C0.99 0 1.98 0 3 0 C2.67 3.3 2.34 6.6 2 10 C-0.64 10 -3.28 10 -6 10 C-6.6875 8.1875 -6.6875 8.1875 -7 6 C-5.5625 4.25 -5.5625 4.25 -4 3 C-4 3.66 -4 4.32 -4 5 C-2.68 5 -1.36 5 0 5 C0 3.35 0 1.7 0 0 Z " fill="#B18946" transform="translate(228,67)"/>
<path d="M0 0 C9.9 0 19.8 0 30 0 C30 0.66 30 1.32 30 2 C19.77 2 9.54 2 -1 2 C-0.67 1.34 -0.34 0.68 0 0 Z " fill="#A18655" transform="translate(104,76)"/>
<path d="M0 0 C0.99 0.495 0.99 0.495 2 1 C2.03758423 2.11242065 2.03758423 2.11242065 2.07592773 3.24731445 C2.19186132 6.60255328 2.31459985 9.95750944 2.4375 13.3125 C2.47681641 14.47974609 2.51613281 15.64699219 2.55664062 16.84960938 C2.59853516 17.96787109 2.64042969 19.08613281 2.68359375 20.23828125 C2.72025146 21.26993408 2.75690918 22.30158691 2.79467773 23.36450195 C2.90161242 26.10748258 2.90161242 26.10748258 4 29 C3.01 29 2.02 29 1 29 C0.1589522 25.3535194 -0.11764968 22.00049093 -0.09765625 18.26171875 C-0.09443359 17.19501953 -0.09121094 16.12832031 -0.08789062 15.02929688 C-0.07951172 13.92650391 -0.07113281 12.82371094 -0.0625 11.6875 C-0.05798828 10.56537109 -0.05347656 9.44324219 -0.04882812 8.28710938 C-0.03707313 5.5246849 -0.02064077 2.76237002 0 0 Z " fill="#927041" transform="translate(549,78)"/>
<path d="M0 0 C0.33 2.31 0.66 4.62 1 7 C0.34 7 -0.32 7 -1 7 C-1.33 5.35 -1.66 3.7 -2 2 C-3.98 2.33 -5.96 2.66 -8 3 C-9.2062252 6.61867559 -9.10816918 9.92506251 -9.0625 13.6875 C-9.05798828 14.38939453 -9.05347656 15.09128906 -9.04882812 15.81445312 C-9.03706927 17.54300538 -9.01913454 19.27151365 -9 21 C-10.32 20.67 -11.64 20.34 -13 20 C-12.83242188 19.43023437 -12.66484375 18.86046875 -12.4921875 18.2734375 C-11.98416703 15.92686675 -11.99922965 14.01463673 -12.125 11.625 C-12.15314953 7.35330904 -11.588296 4.53733786 -9 1 C-5.3458462 -0.7509487 -3.87850305 -1.29283435 0 0 Z " fill="#EBE4A8" transform="translate(381,75)"/>
<path d="M0 0 C4.95 0.99 4.95 0.99 10 2 C10.93066033 8.51462234 11.07882048 14.84877193 10.96289062 21.4140625 C10.92056123 24.76785312 10.94534285 27.79483101 12 31 C11.34 31 10.68 31 10 31 C8.75157392 28.50314785 8.80928753 26.67039972 8.71875 23.87890625 C8.68136719 22.86119141 8.64398438 21.84347656 8.60546875 20.79492188 C8.57066406 19.72822266 8.53585937 18.66152344 8.5 17.5625 C8.43113277 15.45949891 8.35838941 13.35662016 8.28125 11.25390625 C8.25095703 10.31877197 8.22066406 9.3836377 8.18945312 8.42016602 C8.08681227 5.85839371 8.08681227 5.85839371 7 3 C4.69 3.33 2.38 3.66 0 4 C0 2.68 0 1.36 0 0 Z " fill="#CBBC80" transform="translate(291,76)"/>
<path d="M0 0 C0.639375 0.2475 1.27875 0.495 1.9375 0.75 C2.2675 1.74 2.5975 2.73 2.9375 3.75 C-0.37364834 4.87880057 -3.65228257 5.96302675 -7.0625 6.75 C-7.0625 5.76 -7.0625 4.77 -7.0625 3.75 C-9.3725 3.42 -11.6825 3.09 -14.0625 2.75 C-14.0625 2.42 -14.0625 2.09 -14.0625 1.75 C-13.01449219 1.65912109 -13.01449219 1.65912109 -11.9453125 1.56640625 C-11.03523437 1.48261719 -10.12515625 1.39882812 -9.1875 1.3125 C-8.28257812 1.23128906 -7.37765625 1.15007812 -6.4453125 1.06640625 C-3.92910405 0.73228677 -2.51163743 -0.3044409 0 0 Z " fill="#977642" transform="translate(537.0625,95.25)"/>
<path d="M0 0 C1.47906892 -0.02689216 2.95827483 -0.04634621 4.4375 -0.0625 C5.26121094 -0.07410156 6.08492187 -0.08570312 6.93359375 -0.09765625 C9 0 9 0 10 1 C10.04450293 5.38798865 9.70432246 8.97994678 7.1875 12.625 C5 14 5 14 3.0625 13.5625 C2.381875 13.376875 1.70125 13.19125 1 13 C-1.72981832 14.35400645 -1.72981832 14.35400645 -4 16 C-4 15.01 -4 14.02 -4 13 C-0.91111478 10.94074319 -0.29064073 10.7609626 3.1875 10.875 C5.0746875 10.936875 5.0746875 10.936875 7 11 C7.33 7.7 7.66 4.4 8 1 C5.36 1 2.72 1 0 1 C0 0.67 0 0.34 0 0 Z " fill="#A48B5C" transform="translate(223,66)"/>
<path d="M0 0 C0.66 0.33 1.32 0.66 2 1 C0.48888889 5.65925926 0.48888889 5.65925926 -2.0625 7.4375 C-4.32981036 8.93878866 -4.32981036 8.93878866 -4.75 12.1875 C-4.8325 13.115625 -4.915 14.04375 -5 15 C-4.34 15 -3.68 15 -3 15 C-2.01 17.31 -1.02 19.62 0 22 C-2.28783297 21.08486681 -3.73449728 20.34515354 -5.25 18.375 C-6.81226721 13.42782049 -6.52795079 9.35758774 -4.6875 4.625 C-3 2 -3 2 0 0 Z " fill="#DBCF95" transform="translate(326,67)"/>
<path d="M0 0 C0.66 0.66 1.32 1.32 2 2 C1.34 2.66 0.68 3.32 0 4 C-0.30599063 6.56916657 -0.51087087 9.04758384 -0.625 11.625 C-0.66367187 12.33140625 -0.70234375 13.0378125 -0.7421875 13.765625 C-0.83647724 15.50998524 -0.91932891 17.25495691 -1 19 C-0.01 19.33 0.98 19.66 2 20 C0.35 20.33 -1.3 20.66 -3 21 C-3.08687496 17.87517438 -3.14034568 14.75065754 -3.1875 11.625 C-3.21263672 10.73554687 -3.23777344 9.84609375 -3.26367188 8.9296875 C-3.27333984 8.07890625 -3.28300781 7.228125 -3.29296875 6.3515625 C-3.3086792 5.56604004 -3.32438965 4.78051758 -3.34057617 3.97119141 C-3.22818604 3.32069824 -3.1157959 2.67020508 -3 2 C-2.01 1.34 -1.02 0.68 0 0 Z " fill="#987544" transform="translate(43,91)"/>
<path d="M0 0 C1.4540625 0.0309375 1.4540625 0.0309375 2.9375 0.0625 C2.751875 1.01125 2.56625 1.96 2.375 2.9375 C1.65063368 5.96118793 1.65063368 5.96118793 2.9375 8.0625 C1.2875 8.3925 -0.3625 8.7225 -2.0625 9.0625 C-2.0625 8.4025 -2.0625 7.7425 -2.0625 7.0625 C-2.7225 7.0625 -3.3825 7.0625 -4.0625 7.0625 C-4.10504356 5.06295254 -4.10330783 3.06208364 -4.0625 1.0625 C-3.0625 0.0625 -3.0625 0.0625 0 0 Z " fill="#C2A360" transform="translate(477.0625,65.9375)"/>
<path d="M0 0 C1.953125 0.50390625 1.953125 0.50390625 4 2 C4.46929759 4.76464413 4.69630533 7.16246165 4.75 9.9375 C4.77964844 10.66646484 4.80929687 11.39542969 4.83984375 12.14648438 C4.95348388 15.09842212 5 18.04597671 5 21 C3 23 3 23 1.0546875 23.1953125 C-0.96354167 23.13020833 -2.98177083 23.06510417 -5 23 C-4.67 22.34 -4.34 21.68 -4 21 C-1.4375 20.375 -1.4375 20.375 1 20 C2.05848634 16.82454097 2.16670878 14.45991204 2.1875 11.125 C2.20167969 10.09632812 2.21585937 9.06765625 2.23046875 8.0078125 C1.99581369 4.94536512 1.29184572 2.76751139 0 0 Z " fill="#D7CB89" transform="translate(420,76)"/>
<path d="M0 0 C0.66 0 1.32 0 2 0 C6.42857143 7.28571429 6.42857143 7.28571429 7 12 C6.01 12.33 5.02 12.66 4 13 C3.34 12.01 2.68 11.02 2 10 C1.67 9.67 1.34 9.34 1 9 C0.95936168 7.33382885 0.957279 5.66611905 1 4 C0.34 4 -0.32 4 -1 4 C-0.67 2.68 -0.34 1.36 0 0 Z " fill="#C3AC5D" transform="translate(263,68)"/>
<path d="M0 0 C1.134375 0.020625 2.26875 0.04125 3.4375 0.0625 C3.4375 0.7225 3.4375 1.3825 3.4375 2.0625 C4.4275 2.3925 5.4175 2.7225 6.4375 3.0625 C6.4375 3.7225 6.4375 4.3825 6.4375 5.0625 C3.4675 5.0625 0.4975 5.0625 -2.5625 5.0625 C-3.2225 3.7425 -3.8825 2.4225 -4.5625 1.0625 C-3.5625 0.0625 -3.5625 0.0625 0 0 Z " fill="#A9813D" transform="translate(524.5625,85.9375)"/>
<path d="M0 0 C0.66 0.33 1.32 0.66 2 1 C1.67 2.32 1.34 3.64 1 5 C2.670625 4.9690625 2.670625 4.9690625 4.375 4.9375 C8 5 8 5 10 6 C9.34 7.32 8.68 8.64 8 10 C6.68 10 5.36 10 4 10 C4 9.34 4 8.68 4 8 C3.34 8 2.68 8 2 8 C2 7.34 2 6.68 2 6 C1.01 6 0.02 6 -1 6 C-1.042721 4.33388095 -1.04063832 2.66617115 -1 1 C-0.67 0.67 -0.34 0.34 0 0 Z " fill="#9E7F4B" transform="translate(520,76)"/>
<path d="M0 0 C0.66 0 1.32 0 2 0 C2.2226746 1.43534841 2.42761906 2.87345525 2.625 4.3125 C2.74101562 5.11300781 2.85703125 5.91351563 2.9765625 6.73828125 C3 9 3 9 1 12 C0.01 11.67 -0.98 11.34 -2 11 C-2.28571429 3.57142857 -2.28571429 3.57142857 0 0 Z " fill="#C5AD56" transform="translate(267,86)"/>
<path d="M0 0 C0.66 0 1.32 0 2 0 C2 0.66 2 1.32 2 2 C1.34 2 0.68 2 0 2 C0.37125 3.093125 0.7425 4.18625 1.125 5.3125 C1.41375 6.529375 1.7025 7.74625 2 9 C1.01 10.485 1.01 10.485 0 12 C-0.66 12 -1.32 12 -2 12 C-3.25 9.375 -3.25 9.375 -4 6 C-2.25 2.625 -2.25 2.625 0 0 Z " fill="#957344" transform="translate(550,65)"/>
<path d="M0 0 C0.66 0 1.32 0 2 0 C0.98949988 2.66404576 0.02766415 3.97707828 -2.1875 5.8125 C-5.85344989 7.36034551 -8.1687983 6.86744189 -12 6 C-12.66 5.67 -13.32 5.34 -14 5 C-14 4.34 -14 3.68 -14 3 C-11.69 3.66 -9.38 4.32 -7 5 C-6.67 4.34 -6.34 3.68 -6 3 C-4.66923011 2.65657551 -3.33568021 2.32380126 -2 2 C-1.34 1.34 -0.68 0.68 0 0 Z " fill="#DAD4A6" transform="translate(93,76)"/>
<path d="M0 0 C1.0326802 2.78823655 1.04509293 3.8677274 0.0625 6.75 C-0.288125 7.4925 -0.63875 8.235 -1 9 C-2.65 9 -4.3 9 -6 9 C-5.01 8.67 -4.02 8.34 -3 8 C-3 7.34 -3 6.68 -3 6 C-4.32 6 -5.64 6 -7 6 C-7 4.68 -7 3.36 -7 2 C-4.525 2.495 -4.525 2.495 -2 3 C-1.34 2.01 -0.68 1.02 0 0 Z " fill="#C9A96A" transform="translate(470,70)"/>
<path d="M0 0 C1.65 0 3.3 0 5 0 C6.1875 1.625 6.1875 1.625 7 4 C5.07142857 9.46428571 5.07142857 9.46428571 2 11 C0 11 0 11 -3 9 C-1.02 8.67 0.96 8.34 3 8 C2.34 6.68 1.68 5.36 1 4 C1.99 3.34 2.98 2.68 4 2 C2.68 1.34 1.36 0.68 0 0 Z " fill="#E6DE9F" transform="translate(345,67)"/>
<path d="M0 0 C0.33 0.33 0.66 0.66 1 1 C0.82364548 3.69082872 0.38164079 6.32851446 0 9 C-0.33 9 -0.66 9 -1 9 C-1 6.36 -1 3.72 -1 1 C-5.50066475 2.06795435 -9.7494534 3.14038586 -14 5 C-13.375 3.125 -13.375 3.125 -12 1 C-7.67093485 -1.06614473 -4.62012665 -1.18189287 0 0 Z " fill="#806039" transform="translate(576,66)"/>
<path d="M0 0 C2.31 0 4.62 0 7 0 C6.67 1.65 6.34 3.3 6 5 C5.01 5 4.02 5 3 5 C3.33 5.99 3.66 6.98 4 8 C3.67 8.66 3.34 9.32 3 10 C1.68 9.34 0.36 8.68 -1 8 C-0.649375 7.05125 -0.29875 6.1025 0.0625 5.125 C1.35026777 2.12939828 1.35026777 2.12939828 0 0 Z " fill="#BC9C53" transform="translate(246,67)"/>
<path d="M0 0 C7.9529703 -0.62376238 7.9529703 -0.62376238 11.9375 1.75 C15.24943897 5.36302433 16 7.02965572 16 12 C15.01 11.67 14.02 11.34 13 11 C12.30741771 9.00882592 11.64252365 7.0078864 11 5 C9.98029682 3.06345052 9.98029682 3.06345052 8 2 C5.31945841 1.45858368 2.73632553 1.22428898 0 1 C0 0.67 0 0.34 0 0 Z " fill="#D0C38A" transform="translate(297,66)"/>
<path d="M0 0 C8.25 0 16.5 0 25 0 C25 0.33 25 0.66 25 1 C23.7934375 1.06058594 22.586875 1.12117188 21.34375 1.18359375 C19.72915876 1.26807818 18.11457586 1.35272211 16.5 1.4375 C15.31277344 1.49647461 15.31277344 1.49647461 14.1015625 1.55664062 C9.02614559 1.82705218 4.03624555 2.3127142 -1 3 C-0.67 2.01 -0.34 1.02 0 0 Z " fill="#84633C" transform="translate(164,51)"/>
<path d="M0 0 C2.5 0.125 2.5 0.125 3.5 1.125 C3.54063832 2.79117115 3.542721 4.45888095 3.5 6.125 C1.52 6.125 -0.46 6.125 -2.5 6.125 C-2.88218767 4.46885343 -3.21395102 2.80042976 -3.5 1.125 C-2.5 0.125 -2.5 0.125 0 0 Z " fill="#A67139" transform="translate(537.5,98.875)"/>
<path d="M0 0 C5.94 0 11.88 0 18 0 C17.67 0.66 17.34 1.32 17 2 C11.39 2 5.78 2 0 2 C0 1.34 0 0.68 0 0 Z " fill="#C0A77C" transform="translate(103,90)"/>
<path d="M0 0 C3.63 0 7.26 0 11 0 C11.33 0.66 11.66 1.32 12 2 C9.47524538 3.26237731 7.68799534 3.09856404 4.875 3.0625 C3.96492188 3.05347656 3.05484375 3.04445313 2.1171875 3.03515625 C1.41851562 3.02355469 0.71984375 3.01195313 0 3 C0 2.01 0 1.02 0 0 Z " fill="#C4B07E" transform="translate(104,96)"/>
<path d="M0 0 C1.50390625 1.28125 1.50390625 1.28125 3 3 C2.93064501 6.88387927 2.86399525 9.13600475 0.0625 11.9375 C-2 13 -2 13 -4 13 C-3.69320312 12.43796875 -3.38640625 11.8759375 -3.0703125 11.296875 C-1.97042415 8.93653066 -1.39904149 6.79534438 -0.875 4.25 C-0.70742187 3.45078125 -0.53984375 2.6515625 -0.3671875 1.828125 C-0.24601562 1.22484375 -0.12484375 0.6215625 0 0 Z " fill="#C8C295" transform="translate(85,64)"/>
<path d="M0 0 C0 0.66 0 1.32 0 2 C-1.01320313 2.19916016 -1.01320313 2.19916016 -2.046875 2.40234375 C-3.38492188 2.66724609 -3.38492188 2.66724609 -4.75 2.9375 C-5.63171875 3.11152344 -6.5134375 3.28554687 -7.421875 3.46484375 C-9.63235053 3.92368488 -11.81512068 4.43336074 -14 5 C-9.12340985 -0.14018962 -7.00144876 -1.40028975 0 0 Z " fill="#D9D1A7" transform="translate(90,61)"/>
<path d="M0 0 C1.65 0.33 3.3 0.66 5 1 C5 1.99 5 2.98 5 4 C1.79619983 6.13586678 0.98060033 6.23132175 -2.6875 6.125 C-3.89986328 6.09792969 -3.89986328 6.09792969 -5.13671875 6.0703125 C-6.05904297 6.03550781 -6.05904297 6.03550781 -7 6 C-7 5.67 -7 5.34 -7 5 C-4.69 5 -2.38 5 0 5 C0 3.35 0 1.7 0 0 Z " fill="#D5C48C" transform="translate(310,102)"/>
<path d="M0 0 C2 2 2 2 2.01171875 4.71484375 C1.90472656 5.77832031 1.79773438 6.84179688 1.6875 7.9375 C1.58824219 8.99839844 1.48898437 10.05929688 1.38671875 11.15234375 C1 14 1 14 0 17 C-1.65 17.33 -3.3 17.66 -5 18 C-5 17.34 -5 16.68 -5 16 C-4.35546875 15.60167969 -3.7109375 15.20335938 -3.046875 14.79296875 C-0.68588558 13.09428488 -0.68588558 13.09428488 -0.390625 9.86328125 C-0.32101562 8.10564453 -0.32101562 8.10564453 -0.25 6.3125 C-0.19328125 5.13300781 -0.1365625 3.95351562 -0.078125 2.73828125 C-0.05234375 1.83464844 -0.0265625 0.93101563 0 0 Z " fill="#E8E3AF" transform="translate(370,107)"/>
<path d="M0 0 C2.3125 1.875 2.3125 1.875 4 4 C4 4.66 4 5.32 4 6 C1.5625 5.625 1.5625 5.625 -1 5 C-1.33 4.34 -1.66 3.68 -2 3 C-5.02934491 2.34227572 -5.02934491 2.34227572 -8 2 C-4.75173326 -0.16551116 -3.76905843 -0.55156953 0 0 Z " fill="#AE9156" transform="translate(50,110)"/>
<path d="M0 0 C0 0.66 0 1.32 0 2 C2.31 2.33 4.62 2.66 7 3 C7 3.33 7 3.66 7 4 C3.69759258 4.15360035 1.38953596 4.16306157 -1.6875 2.875 C-2.450625 2.58625 -3.21375 2.2975 -4 2 C-4.99 2.66 -5.98 3.32 -7 4 C-7.99 3.67 -8.98 3.34 -10 3 C-7.29536552 -0.8183075 -4.37912428 -0.24787496 0 0 Z " fill="#B29E6A" transform="translate(261,104)"/>
<path d="M0 0 C4.455 0.99 4.455 0.99 9 2 C9 2.99 9 3.98 9 5 C6.55492066 5.87324262 5.32299678 6.10151327 2.8125 5.3125 C1 4 1 4 0 0 Z " fill="#BDA36D" transform="translate(254,65)"/>
<path d="M0 0 C2.31 0.33 4.62 0.66 7 1 C6.01 1.495 6.01 1.495 5 2 C5 3.65 5 5.3 5 7 C4.67 6.34 4.34 5.68 4 5 C2.02 5 0.04 5 -2 5 C-1.34 4.67 -0.68 4.34 0 4 C0 2.68 0 1.36 0 0 Z " fill="#916326" transform="translate(169,57)"/>
<path d="M0 0 C-2.38573379 1.89213369 -4.07175348 3.02391783 -7 4 C-7.99 3.67 -8.98 3.34 -10 3 C-10.33 3.66 -10.66 4.32 -11 5 C-11 4.01 -11 3.02 -11 2 C-7.36576791 -0.32590854 -4.22911669 -0.16265833 0 0 Z " fill="#B09767" transform="translate(252,81)"/>
<path d="M0 0 C2.97 0.33 5.94 0.66 9 1 C6.60236815 3.39763185 5.66726502 3.34280586 2.375 3.625 C1.55773438 3.69976562 0.74046875 3.77453125 -0.1015625 3.8515625 C-0.72804687 3.90054688 -1.35453125 3.94953125 -2 4 C-1.34 2.68 -0.68 1.36 0 0 Z " fill="#B79E68" transform="translate(53,77)"/>
<path d="M0 0 C3.3 0 6.6 0 10 0 C10 1.65 10 3.3 10 5 C9.67 4.34 9.34 3.68 9 3 C7.88625 3.061875 6.7725 3.12375 5.625 3.1875 C4.42875 3.125625 3.2325 3.06375 2 3 C1.34 2.01 0.68 1.02 0 0 Z " fill="#C7B27E" transform="translate(58,77)"/>
<path d="M0 0 C2.92879371 0.62759865 5.36095629 1.58622659 8 3 C4.1496895 5.56687367 2.41430237 4.83288724 -2 4 C-1.34 3.67 -0.68 3.34 0 3 C0 2.01 0 1.02 0 0 Z " fill="#E6D885" transform="translate(340,70)"/>
<path d="M0 0 C1.32 0 2.64 0 4 0 C4 0.66 4 1.32 4 2 C2.68 2 1.36 2 0 2 C-0.20625 2.639375 -0.4125 3.27875 -0.625 3.9375 C-2 6 -2 6 -5.125 6.75 C-6.548125 6.87375 -6.548125 6.87375 -8 7 C-7.34 6.67 -6.68 6.34 -6 6 C-6 5.34 -6 4.68 -6 4 C-4.35 3.67 -2.7 3.34 -1 3 C-0.67 2.01 -0.34 1.02 0 0 Z " fill="#C3AD77" transform="translate(60,110)"/>
<path d="M0 0 C0.33 0.66 0.66 1.32 1 2 C0.0625 4.625 0.0625 4.625 -1 7 C-1.66 7 -2.32 7 -3 7 C-2.67 9.97 -2.34 12.94 -2 16 C-2.66 16 -3.32 16 -4 16 C-4.47617251 9.30713088 -4.39973696 5.22468764 0 0 Z " fill="#AB9166" transform="translate(238,85)"/>
<path d="M0 0 C0 0.33 0 0.66 0 1 C-0.93972656 1.18175781 -0.93972656 1.18175781 -1.8984375 1.3671875 C-2.71570313 1.53476563 -3.53296875 1.70234375 -4.375 1.875 C-5.18710937 2.03742188 -5.99921875 2.19984375 -6.8359375 2.3671875 C-9.18673923 2.86658932 -9.18673923 2.86658932 -11 5 C-13.625 5.625 -13.625 5.625 -16 6 C-16 5.34 -16 4.68 -16 4 C-10.45108785 1.18150494 -6.258654 -0.5326514 0 0 Z " fill="#DFD2A2" transform="translate(421,65)"/>
<path d="M0 0 C0.66 0 1.32 0 2 0 C2.391875 0.928125 2.78375 1.85625 3.1875 2.8125 C5.12822616 6.22550118 6.53018941 7.31198404 10 9 C9.01 9.33 8.02 9.66 7 10 C3.60582235 6.87378374 1.3937282 4.43458973 0 0 Z " fill="#A18B5F" transform="translate(508,98)"/>
<path d="M0 0 C1.98 0.99 1.98 0.99 4 2 C4 6.95 4 11.9 4 17 C3.67 17 3.34 17 3 17 C2.92652344 15.78763672 2.92652344 15.78763672 2.8515625 14.55078125 C2.73941406 12.94783203 2.73941406 12.94783203 2.625 11.3125 C2.55539062 10.25675781 2.48578125 9.20101562 2.4140625 8.11328125 C2.01239911 5.09322731 1.25930981 2.75921946 0 0 Z " fill="#D5C695" transform="translate(420,76)"/>
<path d="M0 0 C1.8871875 0.061875 1.8871875 0.061875 3.8125 0.125 C3.4825 1.115 3.1525 2.105 2.8125 3.125 C2.090625 2.898125 1.36875 2.67125 0.625 2.4375 C-2.94334692 2.04101701 -4.32621099 3.08122213 -7.1875 5.125 C-7.1875 4.135 -7.1875 3.145 -7.1875 2.125 C-4.09861478 0.06574319 -3.47814073 -0.1140374 0 0 Z " fill="#AA8F55" transform="translate(226.1875,76.875)"/>
<path d="M0 0 C0.90105469 0.01804688 1.80210937 0.03609375 2.73046875 0.0546875 C3.41753906 0.07789063 4.10460937 0.10109375 4.8125 0.125 C2.62176883 2.07957437 1.44077019 3.10523653 -1.546875 3.19921875 C-2.33578125 3.07160156 -3.1246875 2.94398437 -3.9375 2.8125 C-4.73671875 2.69261719 -5.5359375 2.57273438 -6.359375 2.44921875 C-6.96265625 2.34222656 -7.5659375 2.23523437 -8.1875 2.125 C-4.87379 -0.08414 -3.8428979 -0.09981553 0 0 Z " fill="#997249" transform="translate(194.1875,50.875)"/>
<path d="M0 0 C1.32 0 2.64 0 4 0 C4 2.31 4 4.62 4 7 C3.01 7 2.02 7 1 7 C1 5.68 1 4.36 1 3 C0.34 2.34 -0.32 1.68 -1 1 C-0.67 0.67 -0.34 0.34 0 0 Z " fill="#A89B7C" transform="translate(109,67)"/>
<path d="M0 0 C0.66 0.66 1.32 1.32 2 2 C1.625 5.625 1.625 5.625 1 9 C-0.65 9.33 -2.3 9.66 -4 10 C-3.34 9.01 -2.68 8.02 -2 7 C-1.34 7 -0.68 7 0 7 C0 4.69 0 2.38 0 0 Z " fill="#9B7D4D" transform="translate(203,52)"/>
<path d="M0 0 C-1.61594832 2.04119788 -3.2856382 4.04072937 -5 6 C-5.66 6 -6.32 6 -7 6 C-6.75 3.625 -6.75 3.625 -6 1 C-2.69333333 -1.34666667 -2.69333333 -1.34666667 0 0 Z " fill="#D2C389" transform="translate(435,99)"/>
<path d="M0 0 C3.3 0 6.6 0 10 0 C9.34 1.32 8.68 2.64 8 4 C7.67 3.34 7.34 2.68 7 2 C4.67843403 1.59270772 2.3431213 1.25561323 0 1 C0 0.67 0 0.34 0 0 Z " fill="#997E4E" transform="translate(523,97)"/>
<path d="M0 0 C0.928125 0.0825 1.85625 0.165 2.8125 0.25 C2.4825 1.24 2.1525 2.23 1.8125 3.25 C-0.8275 3.58 -3.4675 3.91 -6.1875 4.25 C-4.36434338 1.00883268 -3.82500054 0.30000004 0 0 Z " fill="#AF965E" transform="translate(491.1875,53.75)"/>
<path d="M0 0 C2.64 0 5.28 0 8 0 C7.67 0.66 7.34 1.32 7 2 C4.67843403 2.40729228 2.3431213 2.74438677 0 3 C0 2.01 0 1.02 0 0 Z " fill="#B69E5E" transform="translate(112,82)"/>
<path d="M0 0 C0 0.33 0 0.66 0 1 C-3.96 1.66 -7.92 2.32 -12 3 C-10 0 -10 0 -8.25 -0.75 C-5.35369502 -1.07181166 -2.84166259 -0.58124917 0 0 Z " fill="#826336" transform="translate(574,78)"/>
<path d="M0 0 C0.79921875 0.01804687 1.5984375 0.03609375 2.421875 0.0546875 C3.02515625 0.07789062 3.6284375 0.10109375 4.25 0.125 C4.25 0.455 4.25 0.785 4.25 1.125 C2.6 1.125 0.95 1.125 -0.75 1.125 C-0.75 1.785 -0.75 2.445 -0.75 3.125 C-3.39 2.795 -6.03 2.465 -8.75 2.125 C-5.68753253 0.34090198 -3.52920727 -0.10380021 0 0 Z " fill="#E2D8A4" transform="translate(336.75,64.875)"/>
<path d="M0 0 C0.61875 0.268125 1.2375 0.53625 1.875 0.8125 C2.205 1.8025 2.535 2.7925 2.875 3.8125 C2.215 4.4725 1.555 5.1325 0.875 5.8125 C0.545 4.4925 0.215 3.1725 -0.125 1.8125 C-1.775 1.8125 -3.425 1.8125 -5.125 1.8125 C-2.125 -0.1875 -2.125 -0.1875 0 0 Z " fill="#C9C495" transform="translate(95.125,105.1875)"/>
<path d="M0 0 C1.0326802 2.78823655 1.04509293 3.8677274 0.0625 6.75 C-0.288125 7.4925 -0.63875 8.235 -1 9 C-2.65 9 -4.3 9 -6 9 C-5.38125 8.62875 -4.7625 8.2575 -4.125 7.875 C-1.4489404 5.51377094 -0.9063156 3.39868348 0 0 Z " fill="#B2A26F" transform="translate(470,70)"/>
<path d="M0 0 C1.32 0 2.64 0 4 0 C3.67 1.32 3.34 2.64 3 4 C1.35 4 -0.3 4 -2 4 C-1.34 2.68 -0.68 1.36 0 0 Z " fill="#B39256" transform="translate(500,70)"/>
<path d="M0 0 C0.80824219 0.11085938 1.61648438 0.22171875 2.44921875 0.3359375 C3.37154297 0.47902344 3.37154297 0.47902344 4.3125 0.625 C-0.06758443 3.20964442 -2.79875113 2.43979148 -7.6875 1.625 C-4.33422361 -0.61051759 -3.78006343 -0.54783528 0 0 Z " fill="#EBE7AB" transform="translate(381.6875,65.375)"/>
<path d="M0 0 C2.97 0.495 2.97 0.495 6 1 C5.67 2.32 5.34 3.64 5 5 C4.01 5 3.02 5 2 5 C1.34 3.35 0.68 1.7 0 0 Z " fill="#E9CC92" transform="translate(327,97)"/>
<path d="M0 0 C2.475 0.495 2.475 0.495 5 1 C4.34 2.65 3.68 4.3 3 6 C0.8614515 3.8614515 0.57344937 2.86724686 0 0 Z " fill="#CAB86D" transform="translate(443,67)"/>
<path d="M0 0 C1.4540625 0.0309375 1.4540625 0.0309375 2.9375 0.0625 C2.2775 0.7225 1.6175 1.3825 0.9375 2.0625 C0.2775 2.0625 -0.3825 2.0625 -1.0625 2.0625 C-1.7225 3.7125 -2.3825 5.3625 -3.0625 7.0625 C-3.3925 7.0625 -3.7225 7.0625 -4.0625 7.0625 C-4.10504356 5.06295254 -4.10330783 3.06208364 -4.0625 1.0625 C-3.0625 0.0625 -3.0625 0.0625 0 0 Z " fill="#B9A471" transform="translate(477.0625,65.9375)"/>
</svg>
